#!OML:ASF X:\für Bonn\!DataBase\2005_08_12_Daniel\c3d\Daniel.ASF
:FULLY-SPECIFIED
:DEGREES
61
root 2.07477 17.5737 18.2834 -727.445 11.4715 -2.13465
lowerback 7.04866 1.28673 6.02946
upperback 0.867531 2.0393 -4.88377
thorax -2.66223 0.947199 -8.75922
lowerneck 1.7486 -4.54267 0.0203803
upperneck 7.82076 -6.27824 3.29067
head 2.27765 -3.04801 0.940712
rclavicle 1.19768e-014 -3.18055e-015
rhumerus 45.7829 4.85111 -45.0059
rradius 43.061
rwrist 4.52967
rhand -15.2875 17.3524
rfingers 7.12502
rthumb 10.8875 -12.3454
lclavicle 1.19768e-014 -3.18055e-015
lhumerus -33.8185 34.089 61.3576
lradius 19.505
lwrist -33.1428
lhand -11.329 -5.66261
lfingers 7.12502
lthumb 14.7035 23.796
rfemur 6.54284 21.0312 25.4988
rtibia 17.5969
rfoot -22.5209 -24.676
rtoes -12.7171
lfemur -0.476083 -13.9588 -16.9862
ltibia 31.6038
lfoot -23.2411 4.77739
ltoes -12.311
62
root 2.0783 17.5763 18.2826 -727.384 11.5588 -2.11987
lowerback 7.12891 1.4009 6.12879
upperback 0.828335 2.2006 -4.99261
thorax -2.7086 1.02379 -8.95445
lowerneck 1.633 -4.67714 -0.0586847
upperneck 7.87026 -6.47529 3.5001
head 2.33053 -3.14149 1.01377
rclavicle -3.1408e-014 2.22639e-014
rhumerus 46.868 4.82043 -43.8513
rradius 40.8706
rwrist 4.46245
rhand -14.1608 17.106
rfingers 7.12502
rthumb 11.974 -12.5316
lclavicle -3.1408e-014 2.22639e-014
lhumerus -33.1564 33.69 61.9037
lradius 19.5913
lwrist -32.6816
lhand -11.3071 -5.68307
lfingers 7.12502
lthumb 14.7246 23.774
rfemur 6.48175 20.9665 25.428
rtibia 17.5833
rfoot -22.5287 -24.678
rtoes -12.7109
lfemur -0.542698 -14.0446 -17.0213
ltibia 31.5806
lfoot -23.2087 4.81004
ltoes -12.4101
63
root 2.08173 17.5777 18.2823 -727.336 11.6421 -2.10337
lowerback 7.21745 1.51975 6.22543
upperback 0.802271 2.36878 -5.09603
thorax -2.74359 1.10484 -9.14333
lowerneck 1.48609 -4.81893 -0.145927
upperneck 7.93061 -6.68168 3.68665
head 2.39299 -3.23968 1.07979
rclavicle -3.8266e-014 -1.27222e-014
rhumerus 47.8586 4.77717 -42.6884
rradius 38.8636
rwrist 4.31807
rhand -12.8719 16.7355
rfingers 7.12502
rthumb 13.2166 -12.8255
lclavicle -3.8266e-014 -1.27222e-014
lhumerus -32.5094 33.3575 62.4426
lradius 19.6678
lwrist -32.2697
lhand -11.2981 -5.70313
lfingers 7.12502
lthumb 14.7333 23.7533
rfemur 6.44652 20.9228 25.3708
rtibia 17.5708
rfoot -22.557 -24.6982
rtoes -12.6129
lfemur -0.593194 -14.1222 -17.057
ltibia 31.5619
lfoot -23.1853 4.82037
ltoes -12.4089
64
root 2.08504 17.58 18.2813 -727.276 11.7378 -2.10201
lowerback 7.2897 1.62438 6.32597
upperback 0.779624 2.51804 -5.18643
thorax -2.76898 1.1769 -9.3183
lowerneck 1.32439 -4.94303 -0.248688
upperneck 7.98673 -6.86445 3.8728
head 2.45762 -3.32625 1.14829
rclavicle 6.52014e-014 -7.4743e-014
rhumerus 48.818 4.72112 -41.6198
rradius 36.9692
rwrist 4.2004
rhand -11.4889 16.2594
rfingers 7.12502
rthumb 14.5495 -13.2104
lclavicle 6.52014e-014 -7.4743e-014
lhumerus -31.9105 33.1479 62.9297
lradius 19.7513
lwrist -31.9294
lhand -11.27 -5.72508
lfingers 7.12502
lthumb 14.7603 23.7294
rfemur 6.38382 20.8626 25.3186
rtibia 17.563
rfoot -22.5665 -24.7131
rtoes -12.5981
lfemur -0.669831 -14.1957 -17.0655
ltibia 31.5451
lfoot -23.1523 4.81394
ltoes -12.4474
65
root 2.08835 17.5824 18.281 -727.217 11.8334 -2.09894
lowerback 7.36264 1.73363 6.42267
upperback 0.754602 2.67332 -5.27906
thorax -2.79502 1.25189 -9.49453
lowerneck 1.17455 -5.07318 -0.308946
upperneck 8.02434 -7.05304 4.03194
head 2.51191 -3.41541 1.20116
rclavicle -8.29926e-015 -1.59028e-014
rhumerus 49.6626 4.59575 -40.7361
rradius 35.2
rwrist 4.17506
rhand -10.0073 15.7596
rfingers 7.12502
rthumb 15.9767 -13.6015
lclavicle -8.29926e-015 -1.59028e-014
lhumerus -31.3245 32.8461 63.4478
lradius 19.8711
lwrist -31.488
lhand -11.2618 -5.69039
lfingers 7.12502
lthumb 14.7682 23.7635
rfemur 6.32559 20.8237 25.2743
rtibia 17.5543
rfoot -22.5769 -24.7631
rtoes -12.6316
lfemur -0.747267 -14.2633 -17.0796
ltibia 31.5332
lfoot -23.1094 4.81757
ltoes -12.4965
66
root 2.09166 17.5842 18.2805 -727.154 11.9356 -2.08216
lowerback 7.43465 1.8418 6.50105
upperback 0.733046 2.82583 -5.37083
thorax -2.81738 1.32599 -9.65905
lowerneck 1.01194 -5.19235 -0.402316
upperneck 8.07042 -7.22957 4.22407
head 2.57471 -3.49817 1.26991
rclavicle 4.66399e-014 -3.18055e-014
rhumerus 50.4263 4.40574 -40.0513
rradius 33.519
rwrist 4.364
rhand -8.58215 15.3183
rfingers 7.12502
rthumb 17.3486 -13.9274
lclavicle 4.66399e-014 -3.18055e-014
lhumerus -30.7773 32.692 63.9052
lradius 19.961
lwrist -31.2007
lhand -11.2294 -5.72212
lfingers 7.12502
lthumb 14.7995 23.7294
rfemur 6.27021 20.7644 25.2066
rtibia 17.5413
rfoot -22.5793 -24.7839
rtoes -12.5597
lfemur -0.828711 -14.3467 -17.109
ltibia 31.5238
lfoot -23.069 4.81745
ltoes -12.4458
67
root 2.09451 17.5869 18.2805 -727.063 12.0583 -2.07877
lowerback 7.47079 1.93775 6.5759
upperback 0.698988 2.96029 -5.45266
thorax -2.83649 1.39071 -9.8078
lowerneck 0.910645 -5.29563 -0.432924
upperneck 8.06742 -7.3778 4.34803
head 2.60375 -3.56827 1.30873
rclavicle -7.8023e-015 4.77083e-015
rhumerus 51.138 4.11082 -39.7328
rradius 31.8609
rwrist 4.91826
rhand -7.10881 14.9862
rfingers 7.12502
rthumb 18.7662 -14.1286
lclavicle -7.8023e-015 4.77083e-015
lhumerus -30.3012 32.6597 64.2921
lradius 20.0522
lwrist -31.0213
lhand -11.1577 -5.77307
lfingers 7.12502
lthumb 14.8686 23.6734
rfemur 6.18404 20.7037 25.1479
rtibia 17.5324
rfoot -22.6308 -24.8052
rtoes -12.4883
lfemur -0.953413 -14.4308 -17.1083
ltibia 31.5164
lfoot -23.0331 4.79569
ltoes -12.5025
68
root 2.09752 17.5894 18.2801 -726.985 12.1942 -2.06328
lowerback 7.5228 2.0396 6.65666
upperback 0.683582 3.10398 -5.54367
thorax -2.84121 1.46154 -9.97142
lowerneck 0.75397 -5.40366 -0.437421
upperneck 8.08513 -7.5331 4.4529
head 2.64813 -3.6404 1.33495
rclavicle 2.92213e-014 -6.04305e-014
rhumerus 51.7569 3.71484 -39.6135
rradius 30.2562
rwrist 5.64035
rhand -5.65777 14.7879
rfingers 7.12502
rthumb 20.1613 -14.1859
lclavicle 2.92213e-014 -6.04305e-014
lhumerus -29.7776 32.5708 64.7305
lradius 20.1417
lwrist -30.7872
lhand -11.0939 -5.77159
lfingers 7.12502
lthumb 14.93 23.6703
rfemur 6.12059 20.679 25.0909
rtibia 17.5204
rfoot -22.6893 -24.8827
rtoes -12.4596
lfemur -1.05985 -14.5297 -17.1292
ltibia 31.5092
lfoot -22.9995 4.77584
ltoes -12.5026
69
root 2.10024 17.5915 18.2808 -726.903 12.3205 -2.05825
lowerback 7.56808 2.15251 6.74737
upperback 0.651826 3.26302 -5.63546
thorax -2.85447 1.53891 -10.1435
lowerneck 0.660618 -5.51439 -0.399857
upperneck 8.07232 -7.68893 4.53594
head 2.66799 -3.71346 1.34884
rclavicle 2.06239e-014 2.70347e-014
rhumerus 52.2821 3.2315 -39.7571
rradius 28.6569
rwrist 6.64563
rhand -4.20854 14.7674
rfingers 7.12502
rthumb 21.5537 -14.0532
lclavicle 2.06239e-014 2.70347e-014
lhumerus -29.3216 32.4975 65.135
lradius 20.2481
lwrist -30.6389
lhand -11.0252 -5.7453
lfingers 7.12502
lthumb 14.9963 23.6917
rfemur 6.04727 20.6162 25.0334
rtibia 17.5062
rfoot -22.7047 -24.9219
rtoes -12.3829
lfemur -1.17804 -14.58 -17.1267
ltibia 31.5064
lfoot -22.9614 4.73393
ltoes -12.5565
70
root 2.10311 17.5941 18.2817 -726.82 12.4675 -2.05589
lowerback 7.59678 2.25098 6.83711
upperback 0.640501 3.40221 -5.72624
thorax -2.84044 1.60863 -10.3107
lowerneck 0.510292 -5.61293 -0.350859
upperneck 8.07434 -7.82992 4.61363
head 2.702 -3.77782 1.35754
rclavicle 3.72721e-015 -3.49861e-014
rhumerus 52.7885 2.69811 -40.0538
rradius 27.108
rwrist 7.68697
rhand -2.74653 14.8662
rfingers 7.12502
rthumb 22.9572 -13.7868
lclavicle 3.72721e-015 -3.49861e-014
lhumerus -28.8501 32.4413 65.5415
lradius 20.3518
lwrist -30.4569
lhand -10.9824 -5.72912
lfingers 7.12502
lthumb 15.0374 23.7048
rfemur 5.98303 20.6034 24.9973
rtibia 17.4979
rfoot -22.7992 -25.018
rtoes -12.308
lfemur -1.29584 -14.6809 -17.128
ltibia 31.5005
lfoot -22.926 4.70463
ltoes -12.5599
